<svg xmlns="http://www.w3.org/2000/svg" version="1.1" xmlns:xlink="http://www.w3.org/1999/xlink" width="200" height="200"><svg xmlns="http://www.w3.org/2000/svg" version="1.1" xmlns:xlink="http://www.w3.org/1999/xlink" viewBox="0 0 200 200"><rect width="200" height="200" fill="url('#gradient')"></rect><defs><linearGradient id="SvgjsLinearGradient1001" gradientTransform="rotate(45 0.5 0.5)"><stop offset="0%" stop-color="#ffffff"></stop><stop offset="100%" stop-color="#ffffff"></stop></linearGradient></defs><g><g fill="#000000" transform="matrix(6.764036697247707,0,0,6.764036697247707,2.7332667600561678,147.41761731698972)" stroke="#1d7d80" stroke-width="0"><path d="M1.07-14.22L5.58-14.22L8.75-4.33L11.91-14.22L16.43-14.22L16.43 0L12.99 0L12.99-3.32L13.32-10.12L9.88 0L7.62 0L4.17-10.13L4.50-3.32L4.50 0L1.07 0L1.07-14.22ZM24.27-4.46L24.27-14.22L27.69-14.22L27.69-4.46Q27.69-3.11 27.06-2.04Q26.43-0.98 25.30-0.39Q24.17 0.20 22.78 0.20L22.78 0.20Q20.46 0.20 19.17-0.98Q17.88-2.15 17.88-4.30L17.88-4.30L21.32-4.30Q21.32-3.32 21.66-2.88Q21.99-2.44 22.78-2.44L22.78-2.44Q23.50-2.44 23.88-2.97Q24.27-3.51 24.27-4.46L24.27-4.46Z"></path></g></g></svg><style>@media (prefers-color-scheme: light) { :root { filter: none; } }
@media (prefers-color-scheme: dark) { :root { filter: none; } }
</style></svg>